<?xml version="1.0" encoding="iso-8859-1"?>
<svg version="1.1" xmlns="http://www.w3.org/2000/svg" width="320" height="320" viewBox="0 0 320.002 320.002" xml:space="preserve">
<path d="M268.787 175.001h-173.785c-8.284 0-15-6.716-15-15 0-8.284 6.716-15 15-15H268.787l-19.394-19.394c-5.858-5.858-5.858-15.355 0-21.213 5.857-5.858 15.355-5.858 21.213 0L315.604 149.393c.351.351.683.719.997 1.103.137.167.256.344.385.515.165.22.335.435.488.664.14.209.261.426.389.64.123.206.252.407.365.619.118.22.217.446.323.67.104.219.213.435.306.659.09.219.164.442.243.664.087.24.179.477.253.722.067.222.116.447.172.672.063.249.133.497.183.751.051.259.082.521.119.782.032.223.075.443.097.669.048.484.073.971.074 1.457 0 .007.001.015.001.022 0 .007-.001.015-.001.022-.001.487-.026.973-.074 1.458-.022.223-.064.44-.095.661-.038.264-.069.528-.121.79-.05.252-.119.496-.182.743-.057.227-.107.456-.175.681-.073.241-.164.474-.248.71-.081.226-.155.453-.247.675-.091.22-.198.431-.3.646-.108.229-.21.46-.33.685-.11.205-.235.4-.354.599-.131.221-.256.444-.4.659-.146.219-.309.424-.466.635-.136.181-.262.368-.407.544-.299.364-.616.713-.947 1.048-.016.016-.029.034-.045.05l-45 45.001c-2.93 2.929-6.768 4.394-10.607 4.394-3.838-.001-7.678-1.465-10.606-4.393-5.858-5.858-5.858-15.355-.001-21.213L268.787 175.001z"/>
<path d="M14.998 25h190c8.284 0 15 6.716 15 15v60c0 8.284-6.716 15-15 15s-15-6.716-15-15V55h-160v210.001h160v-45.001c0-8.284 6.716-15 15-15s15 6.716 15 15v60.001c0 8.284-6.716 15-15 15h-190c-8.284 0-15-6.716-15-15V40C-.002 31.716 6.714 25 14.998 25z"/>
</svg>
